PathFileType	4	(X/Y/Z)	F:\MotionCapture\20160217\3\Generated_files\EMG_test06-Dynamic.trc
DataRate	CameraRate	NumFrames	NumMarkers	Units	OrigDataRate	OrigDataStartFrame	OrigNumFrames
120.00	120.00	        9	39	mm	120.00	62	        99
Frame#	Time	Top.Head			Front.Head			Rear.Head			R.Shoulder			R.Offset			R.Elbow			R.Wrist			L.Shoulder			L.Elbow			L.Wrist			R.ASIS			L.ASIS			V.Sacral			R.Thigh			R.Knee			R.Shank			R.Ankle			R.Heel			R.Toe			L.Thigh			L.Knee			L.Shank			L.Ankle			L.Heel			L.Toe			R1			R2			R3			R4			R5			R6			R7			L1			L2			L3			L4			L5			L6			L7			V_Mid_ASIS			V_Pelvis_Origin			V_R.Hip_JC			V_L.Hip_JC			V_R.Knee_JC			V_L.Knee_JC			V_R.Ankle_JC			V_L.Ankle_JC			V_Mid_Hip			V_Mid_Shoulder			V_R.Hand			V_L.Hand			V_R.Toe_Offset_Static			V_L.Toe_Offset_Static			V_R.Toe_Offset			V_L.Toe_Offset			
		X1	Y1	Z1	X2	Y2	Z2	X3	Y3	Z3	X4	Y4	Z4	X5	Y5	Z5	X6	Y6	Z6	X7	Y7	Z7	X8	Y8	Z8	X9	Y9	Z9	X10	Y10	Z10	X11	Y11	Z11	X12	Y12	Z12	X13	Y13	Z13	X14	Y14	Z14	X15	Y15	Z15	X16	Y16	Z16	X17	Y17	Z17	X18	Y18	Z18	X19	Y19	Z19	X20	Y20	Z20	X21	Y21	Z21	X22	Y22	Z22	X23	Y23	Z23	X24	Y24	Z24	X25	Y25	Z25	X26	Y26	Z26	X27	Y27	Z27	X28	Y28	Z28	X29	Y29	Z29	X30	Y30	Z30	X31	Y31	Z31	X32	Y32	Z32	X33	Y33	Z33	X34	Y34	Z34	X35	Y35	Z35	X36	Y36	Z36	X37	Y37	Z37	X38	Y38	Z38	X39	Y39	Z39	

62	0.508	2366.82886	24.42955	1717.47083	2281.05322	25.93167	1606.82532	2489.24487	11.29945	1679.85596	2473.13086	207.12219	1444.34656	2630.77686	-38.78941	1288.04663	2464.03809	311.27698	1116.44080	2285.34009	299.05667	925.24500	2485.25391	-198.97549	1422.82568	2540.31030	-274.29459	1097.61658	2465.54443	-280.55585	851.74554	2430.06079	176.64476	953.66077	2432.91797	-113.80435	947.98254	2655.99634	32.02509	959.50189	2367.27954	185.13741	588.38452	2429.20801	234.35706	482.26419	2445.10767	186.49072	242.63449	2518.55664	265.92035	87.93969	2581.38037	200.87238	53.02439	2376.71582	261.98502	61.82889	2393.86621	-52.43117	630.63831	2484.15747	-92.95885	469.54031	2474.13208	-8.10805	333.92151	2536.01782	-52.20123	64.51560	2597.53003	6.48204	48.88847	2394.16162	-53.32229	46.84667	2323.76733	248.59210	52.56941	2366.35742	228.32039	67.22197	2460.71362	184.49348	70.85943	2531.28979	176.09683	51.01482	2554.29761	247.40799	56.26423	2474.37354	276.39297	43.25223	2415.93433	293.93912	50.00995	2347.15161	-29.85489	40.64994	2381.09155	-14.78085	50.77118	2473.65332	32.78516	54.99575	2557.42822	36.41325	50.76775	2573.78296	-34.71471	47.43760	2500.88940	-65.77636	40.35178	2437.36084	-84.41763	43.76990	
63	0.517	2366.98096	24.06411	1717.66785	2280.08008	25.13662	1606.71191	2489.47583	11.13786	1680.16357	2473.20508	207.04323	1444.33643	2630.88208	-39.02250	1287.90735	2461.97852	309.96558	1115.87988	2280.60303	295.81281	926.01300	2485.39722	-199.16208	1422.88245	2539.20850	-273.65836	1096.96167	2461.15015	-278.82642	852.13885	2430.04980	176.59937	953.67542	2432.29126	-113.66867	947.93469	2655.99634	31.93704	959.39880	2365.41943	185.18861	589.20178	2427.61719	234.71896	482.73276	2445.00342	186.44148	242.99701	2517.77124	265.70892	88.70477	2581.23169	200.02065	53.68248	2376.75928	261.79730	62.76830	2393.20508	-52.13863	630.69794	2484.03735	-92.92480	469.52271	2474.13599	-7.94337	334.09811	2536.06641	-52.28226	64.64687	2597.56787	6.42764	48.93299	2394.15674	-53.35000	46.80772	2323.86792	248.17792	53.18000	2366.23608	227.98286	68.04551	2460.33911	183.83853	71.57607	2531.30127	174.97008	51.60301	2554.03320	246.11780	56.81868	2474.56372	275.19315	43.62530	2416.23438	293.28311	51.26443	2347.06543	-29.37163	40.88053	2380.95776	-14.49405	50.85390	2473.72412	32.73508	55.00748	2557.44971	36.47934	50.77738	2573.78271	-34.72633	47.46314	2500.81958	-65.70647	40.23649	2437.36206	-84.41191	43.78394																																																	2897.75757	75.08864	-94.82027	
64	0.525	2367.14575	23.80313	1717.74878	2280.66382	24.61935	1606.55176	2489.77979	11.05826	1680.58508	2473.57642	206.97084	1444.39819	2630.95264	-39.33710	1287.77441	2460.26489	309.31223	1115.86401	2277.90649	294.29059	928.44263	2485.43750	-199.27750	1422.93396	2537.87012	-272.89951	1096.56689	2456.62964	-276.53247	852.64282	2430.08130	176.66176	953.85834	2432.18457	-113.73940	948.01733	2655.97729	31.85608	959.28497	2363.76733	185.34866	589.86786	2425.81372	234.50493	483.21747	2444.06201	185.92241	243.32158	2517.67017	264.93646	89.17371	2581.17017	198.88942	54.13107	2377.12134	261.49649	63.64718	2392.96143	-51.98112	630.83429	2483.79883	-92.86658	469.64920	2473.24487	-8.30061	334.90656	2535.94580	-52.16930	64.67600	2597.50391	6.50472	48.90688	2394.11816	-53.27230	46.80381	2324.24976	247.65714	53.77598	2366.12451	227.77414	68.51761	2460.20459	183.29117	72.02353	2531.40088	174.25720	52.09658	2554.73901	245.54279	57.95741	2474.80078	274.64603	44.19112	2416.40112	292.45993	51.82453	2347.20776	-29.83262	40.68365	2381.37207	-14.82673	50.82611	2473.58398	32.70462	54.92923	2557.46875	36.45242	50.80450	2573.76660	-34.71115	47.46056	2500.83350	-65.72280	40.26232	2437.31055	-84.38825	43.79567																																																	2897.64771	75.04141	-94.87010	
65	0.533	2367.20703	23.67097	1717.84375	2281.23438	24.40687	1606.37756	2489.97827	11.12250	1681.02856	2473.96558	206.92035	1444.36633	2631.07861	-39.53559	1287.70996	2458.44775	307.96176	1115.63086	2272.86987	291.67126	930.39246	2485.49048	-199.50682	1423.07288	2536.63647	-272.52060	1095.86902	2452.28589	-274.50012	852.99066	2430.02563	176.67644	953.91779	2431.92578	-113.63761	948.01074	2655.86646	31.82590	959.20337	2362.19800	185.87025	590.27393	2423.69922	234.38985	483.42218	2442.92334	185.48196	243.93886	2518.08789	263.44998	89.17046	2581.12622	198.06223	55.22698	2377.30737	261.12433	64.03539	2393.16211	-51.80848	630.83289	2483.67065	-92.71214	469.70645	2472.93799	-8.51314	334.86819	2535.80103	-52.09692	64.55798	2597.48560	6.45266	48.88354	2394.14771	-53.35343	46.80928	2324.22437	246.86748	53.77266	2366.06250	227.70117	68.67120	2459.83716	182.93968	72.37138	2531.34180	173.47885	52.93603	2555.50781	245.27745	59.23201	2474.55811	273.46078	44.05114	2416.91382	291.65585	52.43824	2346.99365	-29.63107	40.66824	2381.43091	-14.85388	50.81565	2473.71387	32.75716	54.93102	2557.45483	36.45199	50.76324	2574.54175	-36.08836	48.60584	2500.80005	-65.75333	40.33088	2437.31201	-84.34871	43.80793																																																	2702.05615	54.57952	281.80890	2897.14355	74.62675	-94.42022	
66	0.542	2367.22021	23.63358	1717.89441	2281.95435	23.86849	1606.24597	2490.10278	11.18321	1681.60828	2474.54443	206.88293	1444.47815	2631.22681	-39.79600	1287.62866	2456.61157	306.62543	1115.26294	2269.36328	288.99951	932.31647	2485.41357	-199.67690	1423.32349	2535.61401	-272.10861	1096.12000	2448.21338	-272.49615	853.95618	2430.24634	176.96844	954.44128	2431.68555	-113.58823	948.10779	2655.65186	31.80542	959.08435	2360.60181	185.56033	590.67523	2421.78589	234.62924	483.58353	2442.18604	185.33163	244.84860	2518.50000	262.53030	90.37341	2581.32788	197.16306	56.65540	2377.46558	260.75143	64.18236	2393.42822	-51.50496	630.85480	2483.56470	-92.58846	469.77563	2472.35083	-8.62794	334.96509	2535.79150	-52.11248	64.54164	2597.55322	6.50526	48.96186	2394.14966	-53.34643	46.84497	2324.41602	245.81653	53.62857	2365.99194	227.15773	68.76688	2460.07153	182.85152	72.60788	2531.35278	172.90094	53.64090	2555.50854	244.24500	59.79213	2479.64331	279.40808	51.66300	2417.14063	291.33911	52.87696	2347.03735	-29.62336	40.69073	2381.40063	-14.80712	50.80633	2473.71167	32.75179	54.98164	2557.49121	36.52258	50.80080	2573.70654	-34.69535	47.46359	2500.79126	-65.71013	40.30833	2437.30273	-84.35268	43.81730	
67	0.550	2367.24414	23.59775	1717.91162	2283.48926	23.81847	1605.76428	2490.31152	11.19310	1682.09509	2474.94385	206.74538	1444.51196	2631.30566	-39.97826	1287.57483	2454.75586	305.43488	1115.07031	2265.65063	286.23123	933.72522	2485.45483	-199.87674	1423.66064	2533.22046	-269.95886	1094.81860	2443.88208	-269.76450	854.52100	2429.70142	176.72948	954.39325	2431.41553	-113.46230	948.21875	2655.37891	31.76388	958.90558	2359.23877	185.48416	591.12189	2420.03809	234.55109	483.81885	2441.46509	184.88045	245.17886	2518.77808	261.71011	90.90630	2581.27173	196.41341	57.42524	2377.66968	259.92386	64.51842	2393.57300	-50.95842	630.93005	2483.43604	-92.43050	469.87259	2471.81421	-8.57716	334.93225	2535.78076	-52.03859	64.57465	2597.49316	6.54220	48.92630	2394.12109	-53.30796	46.82764	2324.66064	244.64735	53.32829	2365.99194	225.93953	68.93656	2460.05371	181.52406	73.45735	2531.30200	172.06633	54.83935	2556.26758	243.76025	61.01728	2480.13403	278.64011	52.42917	2417.39551	290.86780	53.15609	2347.07568	-29.55656	40.70338	2381.40894	-14.81547	50.80479	2473.76709	32.82891	54.94328	2557.44458	36.41636	50.74579	2573.71460	-34.68668	47.50848	2500.82007	-65.69007	40.29633	2437.29004	-84.31425	43.85150																																																	3121.64819	133.51239	-159.97363	
68	0.558	2367.21240	23.58661	1717.94019	2283.48950	23.49147	1605.62585	2490.44604	11.35171	1682.47510	2475.34473	206.59186	1444.60437	2631.28662	-40.17484	1287.57178	2453.16187	304.41229	1114.98657	2263.28613	284.36475	935.58795	2485.37061	-199.86479	1424.10449	2532.42529	-270.19034	1094.70874	2439.46509	-267.51962	855.84973	2429.66748	176.92323	954.85193	2431.31567	-113.30198	948.14233	2655.08105	31.87438	958.75110	2357.84131	185.61185	591.86462	2418.49902	234.66335	484.05383	2441.03003	183.61858	245.51599	2519.07715	261.14120	91.57837	2581.68140	195.41074	58.17820	2378.15088	258.71472	64.50873	2393.38599	-50.63378	631.02148	2483.37744	-92.25844	470.00531	2471.37817	-8.30007	334.99103	2535.78613	-52.12775	64.83552	2597.49927	6.55303	48.92324	2394.11426	-53.29247	46.84443	2324.48779	243.17073	52.60232	2366.48291	224.73062	69.45670	2459.91431	179.60088	74.63618	2531.94653	170.90823	55.91962	2556.30200	242.19237	61.46334	2480.28857	277.82547	53.27487	2417.59839	289.39478	52.78342	2347.01123	-29.58759	40.66145	2381.35303	-14.75629	50.77811	2473.67456	32.84772	54.88163	2557.49414	36.53771	50.78424	2573.69531	-34.66219	47.52519	2500.80151	-65.66040	40.33923	2437.27710	-84.30080	43.87262																																																	2926.65430	101.92661	830.83398	3120.49976	133.20105	-160.02122	
69	0.567	2367.15674	23.61870	1717.99426	2285.97949	23.44366	1605.33972	2490.48389	11.44125	1682.75293	2475.94141	206.73105	1444.71362	2631.28564	-40.35034	1287.59656	2451.42139	303.58972	1114.76929	2259.74023	281.85974	937.03589	2485.39014	-199.79317	1424.34790	2531.53687	-270.18201	1094.78748	2435.26733	-264.54330	856.79565	2429.64893	177.10854	955.31659	2431.84839	-112.48936	948.34558	2654.72144	31.98830	958.61115	2356.56616	186.09650	592.89465	2417.04224	234.46677	484.40897	2441.14258	182.75005	246.02992	2519.03052	259.75888	92.07689	2581.93652	194.34659	59.10818	2377.84814	257.20963	64.38310	2393.31763	-50.35925	630.99225	2483.19971	-92.13839	470.16605	2471.11450	-8.04928	334.83615	2535.79517	-52.04029	64.87836	2597.49243	6.54129	48.95403	2394.08862	-53.27217	46.86277	2324.70581	241.46931	52.28537	2366.77808	223.41586	69.34042	2460.57227	179.10983	75.22410	2532.30151	169.68486	56.78490	2556.52734	241.17290	62.16026	2480.23706	276.69928	52.98392	2418.17334	288.04785	52.62828	2347.10425	-29.65372	40.75472	2381.36646	-14.78501	50.84604	2473.73633	32.89445	54.92678	2557.45435	36.51010	50.76358	2573.63745	-34.64556	47.53259	2500.86865	-65.72456	40.49678	2437.25732	-84.29369	43.87148																																																	3117.63135	131.77066	-159.60767	2919.28613	100.86704	832.51202	
70	0.575	2367.10376	23.58654	1718.02173	2286.47363	23.20386	1605.03528	2490.45410	11.57935	1683.02771	2476.65039	206.77032	1444.71399	2631.26147	-40.59222	1287.58911	2449.98706	302.20761	1114.94458	2256.85278	279.69513	938.70129	2485.35181	-199.66153	1424.63940	2530.49048	-269.93860	1094.77417	2430.91406	-262.13492	857.77478	2429.73291	177.28188	955.55902	2431.00586	-112.26099	948.53040	2654.32910	32.02657	958.53748	2355.16504	186.68953	593.49841	2415.58960	234.17525	484.73096	2441.55591	182.61908	246.33473	2518.90552	259.15512	92.73833	2582.10498	193.27675	59.58830	2378.29126	256.12283	64.42500	2393.05957	-50.08876	631.11377	2482.97192	-91.89639	470.22256	2469.88232	-8.28791	335.00067	2535.73340	-52.05207	64.81293	2597.51147	6.58414	48.96196	2394.09204	-53.25682	46.90273	2325.10474	239.69080	51.47064	2366.82129	222.62328	68.95003	2460.27417	178.55113	75.50014	2532.31152	168.75760	57.19724	2556.62695	240.28773	62.90934	2480.68872	274.32462	52.65944	2418.17285	287.06281	52.59185	2347.00952	-29.51028	40.69321	2381.30640	-14.69573	50.74893	2473.87158	32.93244	54.84616	2557.50220	36.53337	50.78660	2573.64648	-34.64700	47.54766	2500.81201	-65.65211	40.39282	2437.22046	-84.25699	43.91192																																																	2699.11597	54.17686	281.67075	3111.24609	130.22777	-158.63875	
